<?xml version="1.0" encoding="iso-8859-1"?>
<!-- Generator: Adobe Illustrator 19.0.0, SVG Export Plug-In . SVG Version: 6.00 Build 0)  -->
<svg version="1.1" id="Capa_1" xmlns="http://www.w3.org/2000/svg" xmlns:xlink="http://www.w3.org/1999/xlink" x="0px" y="0px"
	 viewBox="0 0 460 460" style="enable-background:new 0 0 460 460;" xml:space="preserve">
<g id="XMLID_88_">
	<path id="XMLID_89_" style="fill:#C0AB91;" d="M230,0c127.03,0,230,102.97,230,230S357.03,460,230,460V340
		c60.65,0,110-49.35,110-110s-49.35-110-110-110V0z"/>
	<path id="XMLID_90_" style="fill:#D9CCBC;" d="M230,340v120C102.97,460,0,357.03,0,230S102.97,0,230,0v120
		c-60.65,0-110,49.35-110,110S169.35,340,230,340z"/>
	<path id="XMLID_91_" style="fill:#D9CCBC;" d="M338.65,212.788l118.55-18.769c-7.714-49.104-30.967-93.051-64.572-126.646
		l-84.884,84.884C323.817,168.33,334.949,189.341,338.65,212.788z"/>
	<path id="XMLID_92_" style="fill:#78B9EB;" d="M230,120c60.65,0,110,49.35,110,110s-49.35,110-110,110v-40c38.6,0,70-31.4,70-70
		s-31.4-70-70-70V120z"/>
	<path id="XMLID_93_" style="fill:#3D9AE2;" d="M230,160c38.6,0,70,31.4,70,70s-31.4,70-70,70v-50c11.03,0,20-8.97,20-20
		s-8.97-20-20-20V160z"/>
	<path id="XMLID_102_" style="fill:#78B9EB;" d="M230,250v50c-38.6,0-70-31.4-70-70s31.4-70,70-70v50c-11.03,0-20,8.97-20,20
		S218.97,250,230,250z"/>
	<path id="XMLID_103_" style="fill:#EBE5DD;" d="M121.35,247.212L2.8,265.981c7.714,49.104,30.967,93.051,64.572,126.646
		l84.884-84.884C136.183,291.67,125.051,270.659,121.35,247.212z"/>
	<path id="XMLID_104_" style="fill:#B3D8F4;" d="M160,230c0,38.6,31.4,70,70,70v40c-60.65,0-110-49.35-110-110s49.35-110,110-110v40
		C191.4,160,160,191.4,160,230z"/>
</g>
<g>
</g>
<g>
</g>
<g>
</g>
<g>
</g>
<g>
</g>
<g>
</g>
<g>
</g>
<g>
</g>
<g>
</g>
<g>
</g>
<g>
</g>
<g>
</g>
<g>
</g>
<g>
</g>
<g>
</g>
</svg>
